<svg width="111" height="111" viewBox="0 0 111 111" fill="none" xmlns="http://www.w3.org/2000/svg">
<path d="M67.9788 64.7113C60.4551 59.5966 50.7669 57.9299 41.8782 60.2297C39.5368 60.8627 41.2556 66.3399 43.4461 65.7814C51.6306 63.6984 59.5359 66.026 64.5066 69.3958C66.3537 70.6966 69.8363 66.0051 67.9788 64.7113Z" fill="#094B4B"/>
<path d="M86.1724 29.5503L85.9313 29.1913L85.5238 29.0474C78.8811 26.6955 70.5526 26.4441 63.4972 28.4178L63.074 28.5357L62.8104 28.8861C60.9223 31.3653 59.9015 34.3965 59.9053 37.5128C59.9053 45.4199 66.3381 51.8527 74.2451 51.8527C82.1539 51.8527 88.5884 45.4199 88.5884 37.5128C88.5896 34.6779 87.7488 31.9066 86.1724 29.5503ZM74.2434 49.2494C71.1313 49.2457 68.1478 48.0078 65.9473 45.8073C63.7467 43.6067 62.5088 40.6232 62.5051 37.5111C62.5051 35.3431 63.126 33.2723 64.2569 31.4304C64.2256 31.6801 64.1684 31.9178 64.1684 32.1762C64.1684 33.9057 64.8555 35.5644 66.0784 36.7874C67.3014 38.0104 68.9601 38.6974 70.6897 38.6974C72.4192 38.6974 74.0779 38.0104 75.3009 36.7874C76.5238 35.5644 77.2109 33.9057 77.2109 32.1762C77.2109 31.3489 77.0375 30.5684 76.7548 29.8417C79.3685 30.0724 81.9145 30.5736 84.2386 31.3541C85.3822 33.2039 85.9865 35.3363 85.9834 37.5111C85.9797 40.6235 84.7416 43.6073 82.5407 45.8079C80.3397 48.0085 77.3557 49.2461 74.2434 49.2494Z" fill="#094B4B"/>
<path d="M51.0964 37.5128C51.1005 34.6778 50.26 31.9058 48.6822 29.5503L48.4411 29.1913L48.0335 29.0474C41.3909 26.6955 33.0624 26.4441 26.007 28.4178L25.5838 28.5357L25.3184 28.8861C23.4303 31.3653 22.4095 34.3965 22.4133 37.5128C22.4133 45.4199 28.8461 51.8527 36.7532 51.8527C44.6619 51.8509 51.0964 45.4199 51.0964 37.5128ZM36.7532 49.2494C33.6411 49.2457 30.6576 48.0078 28.457 45.8073C26.2565 43.6067 25.0186 40.6232 25.0149 37.5111C25.0149 35.3431 25.6358 33.2723 26.7666 31.4304C26.7354 31.6801 26.6782 31.9178 26.6782 32.1762C26.6782 33.9057 27.3652 35.5644 28.5882 36.7874C29.8112 38.0104 31.4699 38.6974 33.1994 38.6974C34.929 38.6974 36.5877 38.0104 37.8106 36.7874C39.0336 35.5644 39.7207 33.9057 39.7207 32.1762C39.7207 31.3489 39.5472 30.5684 39.2645 29.8417C41.8782 30.0724 44.4243 30.5736 46.7484 31.3541C47.8919 33.2039 48.4962 35.3363 48.4931 37.5111C48.4949 43.9838 43.2293 49.2494 36.7532 49.2494Z" fill="#094B4B"/>
<path d="M55.5 3.46875C28.671 3.46875 6.9375 25.2057 6.9375 52.0312C6.93453 60.7035 9.26811 69.2164 13.6929 76.675C13.013 78.229 12.4025 79.8801 12.321 81.9596C12.3037 82.3117 12.2811 82.6915 12.2568 83.0939C12.0227 86.6615 11.6775 92.0537 16.4471 98.8125C19.5256 103.169 24.3055 106.031 30.2683 107.079C32.3825 107.448 34.547 107.59 36.8971 107.512C40.7422 107.38 43.4409 107.242 44.9186 104.559C46.1708 102.288 44.7295 100.856 45.7979 99.6052C48.9909 100.258 52.2411 100.589 55.5 100.594C82.329 100.594 104.062 78.8568 104.062 52.0312C104.062 25.2057 82.329 3.46875 55.5 3.46875ZM43.3785 100.54C43.8589 103.487 42.1835 106.272 30.8632 104.229C12.2343 100.868 13.4986 83.2431 16.5078 76.8935C18.7174 72.2298 18.3809 70.2457 17.1044 64.4563C15.9441 59.2029 25.8682 61.5807 26.1526 67.88C26.3625 72.5524 24.564 74.9354 26.803 76.9906C31.8084 81.5867 46.2506 79.0684 56.0134 76.9976C60.1898 76.1113 62.3369 80.3467 59.2411 82.5042C55.9319 84.8161 52.0625 85.7544 46.339 86.1742C43.3507 86.391 46.7223 87.3535 46.2541 90.191C45.9991 91.7484 44.3671 91.6947 44.4295 93.3146C44.4624 94.1766 46.2402 95.0836 45.0313 97.2516C44.6723 97.8985 43.0663 98.6408 43.3785 100.54ZM55.5 96.2578C52.836 96.2578 50.2327 96.0029 47.697 95.5467C47.6147 95.0441 47.4519 94.558 47.2149 94.1072C46.561 92.8272 49.813 91.5056 48.4914 88.0681C53.4465 87.2547 57.132 86.299 60.547 84.3583C64.2187 82.2718 64.3418 79.998 64.0904 78.8291C63.6637 76.8814 61.6553 75.2753 59.0832 74.8244C58.1143 74.646 57.1192 74.6679 56.1591 74.8886C50.7391 76.2032 37.7678 77.974 31.2066 76.8224C29.363 76.4963 28.7611 76.0575 28.5912 75.8841C27.639 74.9285 27.8194 73.1004 28.2859 69.3195C28.8583 64.6714 24.6819 59.7163 20.979 59.0659L20.7414 59.026C18.6983 58.7693 16.8755 59.3573 15.7412 60.6459C14.4716 62.0785 14.1872 64.2204 14.9555 66.5133C15.5608 68.3153 15.6978 69.7618 15.5799 71.0487C12.7399 65.1115 11.2683 58.6127 11.2734 52.0312C11.2734 39.8421 16.2303 28.7889 24.2344 20.7813C24.3714 20.8194 24.4981 20.8194 24.6038 20.7553C27.5325 19.0535 30.8003 18.0185 34.1746 17.7238C37.5489 17.4291 40.9467 17.8821 44.126 19.0504C45.014 19.3938 46.4292 16.1314 45.3452 15.7204C41.1656 14.1965 36.6699 13.748 32.2715 14.4161C39.2451 10.0866 47.2917 7.79636 55.5 7.80469C67.7499 7.80469 78.8516 12.8153 86.8696 20.8888C83.2129 19.562 79.3094 19.054 75.4348 19.4007C71.5602 19.7475 67.809 20.9405 64.4459 22.8955C63.4538 23.4886 65.412 26.4492 66.2306 25.9619C69.1588 24.2593 72.4264 23.2233 75.8008 22.9277C79.1751 22.6321 82.5731 23.0842 85.7527 24.2518C86.4967 24.5414 87.5911 22.3197 87.2963 21.338C94.983 29.2988 99.7266 40.1178 99.7266 52.0312C99.7266 76.4183 79.887 96.2578 55.5 96.2578Z" fill="#094B4B"/>
</svg>
